<mxfile host="app.diagrams.net" modified="2023-08-20T13:53:26.532Z" agent="Mozilla/5.0 (Windows NT 10.0; Win64; x64) AppleWebKit/537.36 (KHTML, like Gecko) Chrome/116.0.0.0 Safari/537.36" etag="EX3nnfKiW-1dw51xRAcT" version="21.6.8" type="google">
  <diagram name="Page-1" id="jcsfvS0df8hI-x60VDg-">
    <mxGraphModel grid="1" page="1" gridSize="10" guides="1" tooltips="1" connect="1" arrows="1" fold="1" pageScale="1" pageWidth="827" pageHeight="1169" math="0" shadow="0">
      <root>
        <mxCell id="0" />
        <mxCell id="1" parent="0" />
        <mxCell id="tl7a3gq7mXf6yhrT7CLf-1" value="Zatraži pretplatu" style="rounded=1;whiteSpace=wrap;html=1;" vertex="1" parent="1">
          <mxGeometry x="190" y="260" width="120" height="100" as="geometry" />
        </mxCell>
        <mxCell id="tl7a3gq7mXf6yhrT7CLf-2" value="" style="rounded=0;whiteSpace=wrap;html=1;" vertex="1" parent="1">
          <mxGeometry x="30" y="290" width="40" height="40" as="geometry" />
        </mxCell>
        <mxCell id="tl7a3gq7mXf6yhrT7CLf-3" value="P 2.1" style="rounded=1;whiteSpace=wrap;html=1;fillColor=#1ba1e2;strokeColor=#006EAF;fontColor=#ffffff;" vertex="1" parent="1">
          <mxGeometry x="190" y="260" width="120" height="30" as="geometry" />
        </mxCell>
        <mxCell id="tl7a3gq7mXf6yhrT7CLf-4" value="" style="endArrow=classic;html=1;rounded=0;exitX=-0.02;exitY=0.41;exitDx=0;exitDy=0;entryX=1;entryY=0.25;entryDx=0;entryDy=0;exitPerimeter=0;" edge="1" parent="1" source="tl7a3gq7mXf6yhrT7CLf-1" target="tl7a3gq7mXf6yhrT7CLf-2">
          <mxGeometry width="50" height="50" relative="1" as="geometry">
            <mxPoint x="110" y="330" as="sourcePoint" />
            <mxPoint x="160" y="280" as="targetPoint" />
          </mxGeometry>
        </mxCell>
        <mxCell id="tl7a3gq7mXf6yhrT7CLf-5" value="Zahtjev za&lt;br&gt;&amp;nbsp;odabir pretplate" style="text;html=1;align=center;verticalAlign=middle;resizable=0;points=[];autosize=1;strokeColor=none;fillColor=none;" vertex="1" parent="1">
          <mxGeometry x="80" y="260" width="110" height="40" as="geometry" />
        </mxCell>
        <mxCell id="tl7a3gq7mXf6yhrT7CLf-6" value="" style="endArrow=classic;html=1;rounded=0;exitX=1;exitY=0.75;exitDx=0;exitDy=0;entryX=0.013;entryY=0.602;entryDx=0;entryDy=0;entryPerimeter=0;" edge="1" parent="1" source="tl7a3gq7mXf6yhrT7CLf-2" target="tl7a3gq7mXf6yhrT7CLf-1">
          <mxGeometry width="50" height="50" relative="1" as="geometry">
            <mxPoint x="390" y="330" as="sourcePoint" />
            <mxPoint x="440" y="280" as="targetPoint" />
          </mxGeometry>
        </mxCell>
        <mxCell id="tl7a3gq7mXf6yhrT7CLf-7" value="Odabrana pretplata" style="text;html=1;align=center;verticalAlign=middle;resizable=0;points=[];autosize=1;strokeColor=none;fillColor=none;" vertex="1" parent="1">
          <mxGeometry x="60" y="320" width="130" height="30" as="geometry" />
        </mxCell>
        <mxCell id="tl7a3gq7mXf6yhrT7CLf-8" value="Zatraži naplatu pretplate" style="rounded=1;whiteSpace=wrap;html=1;" vertex="1" parent="1">
          <mxGeometry x="430" y="260" width="120" height="100" as="geometry" />
        </mxCell>
        <mxCell id="tl7a3gq7mXf6yhrT7CLf-9" value="P 2.2" style="rounded=1;whiteSpace=wrap;html=1;fillColor=#1ba1e2;fontColor=#ffffff;strokeColor=#006EAF;" vertex="1" parent="1">
          <mxGeometry x="430" y="260" width="120" height="30" as="geometry" />
        </mxCell>
        <mxCell id="tl7a3gq7mXf6yhrT7CLf-10" value="" style="endArrow=classic;html=1;rounded=0;exitX=1;exitY=0.5;exitDx=0;exitDy=0;entryX=0;entryY=0.5;entryDx=0;entryDy=0;" edge="1" parent="1" source="tl7a3gq7mXf6yhrT7CLf-1" target="tl7a3gq7mXf6yhrT7CLf-8">
          <mxGeometry width="50" height="50" relative="1" as="geometry">
            <mxPoint x="390" y="330" as="sourcePoint" />
            <mxPoint x="440" y="280" as="targetPoint" />
          </mxGeometry>
        </mxCell>
        <mxCell id="tl7a3gq7mXf6yhrT7CLf-11" value="Zahtjev za naplatu" style="text;html=1;align=center;verticalAlign=middle;resizable=0;points=[];autosize=1;strokeColor=none;fillColor=none;" vertex="1" parent="1">
          <mxGeometry x="310" y="280" width="120" height="30" as="geometry" />
        </mxCell>
        <mxCell id="tl7a3gq7mXf6yhrT7CLf-12" value="&lt;br&gt;Davanje pristupa sadržaju u skladu s pretplatom" style="rounded=1;whiteSpace=wrap;html=1;" vertex="1" parent="1">
          <mxGeometry x="670" y="260" width="120" height="100" as="geometry" />
        </mxCell>
        <mxCell id="tl7a3gq7mXf6yhrT7CLf-13" value="P 2.3" style="rounded=1;whiteSpace=wrap;html=1;fillColor=#1ba1e2;fontColor=#ffffff;strokeColor=#006EAF;" vertex="1" parent="1">
          <mxGeometry x="670" y="260" width="120" height="30" as="geometry" />
        </mxCell>
        <mxCell id="tl7a3gq7mXf6yhrT7CLf-14" value="" style="endArrow=classic;html=1;rounded=0;exitX=1;exitY=0.5;exitDx=0;exitDy=0;entryX=0;entryY=0.5;entryDx=0;entryDy=0;" edge="1" parent="1" source="tl7a3gq7mXf6yhrT7CLf-8" target="tl7a3gq7mXf6yhrT7CLf-12">
          <mxGeometry width="50" height="50" relative="1" as="geometry">
            <mxPoint x="390" y="330" as="sourcePoint" />
            <mxPoint x="440" y="280" as="targetPoint" />
          </mxGeometry>
        </mxCell>
        <mxCell id="tl7a3gq7mXf6yhrT7CLf-15" value="Naplata prije&lt;br&gt;&amp;nbsp;isteka roka" style="text;html=1;align=center;verticalAlign=middle;resizable=0;points=[];autosize=1;strokeColor=none;fillColor=none;" vertex="1" parent="1">
          <mxGeometry x="560" y="270" width="90" height="40" as="geometry" />
        </mxCell>
        <mxCell id="tl7a3gq7mXf6yhrT7CLf-16" value="" style="endArrow=classic;html=1;rounded=0;exitX=0.5;exitY=0;exitDx=0;exitDy=0;" edge="1" parent="1" source="tl7a3gq7mXf6yhrT7CLf-13">
          <mxGeometry width="50" height="50" relative="1" as="geometry">
            <mxPoint x="390" y="330" as="sourcePoint" />
            <mxPoint x="730" y="180" as="targetPoint" />
          </mxGeometry>
        </mxCell>
        <mxCell id="tl7a3gq7mXf6yhrT7CLf-19" value="Blokiranje računa i pristupa aplikaciji" style="rounded=1;whiteSpace=wrap;html=1;" vertex="1" parent="1">
          <mxGeometry x="430" y="430" width="120" height="100" as="geometry" />
        </mxCell>
        <mxCell id="tl7a3gq7mXf6yhrT7CLf-20" value="P 2.4" style="rounded=1;whiteSpace=wrap;html=1;fillColor=#1ba1e2;fontColor=#ffffff;strokeColor=#006EAF;" vertex="1" parent="1">
          <mxGeometry x="430" y="430" width="120" height="30" as="geometry" />
        </mxCell>
        <mxCell id="tl7a3gq7mXf6yhrT7CLf-21" value="" style="endArrow=classic;html=1;rounded=0;exitX=0.5;exitY=1;exitDx=0;exitDy=0;entryX=0.5;entryY=0;entryDx=0;entryDy=0;" edge="1" parent="1" source="tl7a3gq7mXf6yhrT7CLf-8" target="tl7a3gq7mXf6yhrT7CLf-20">
          <mxGeometry width="50" height="50" relative="1" as="geometry">
            <mxPoint x="390" y="430" as="sourcePoint" />
            <mxPoint x="440" y="380" as="targetPoint" />
          </mxGeometry>
        </mxCell>
        <mxCell id="tl7a3gq7mXf6yhrT7CLf-22" value="Kašnjenje" style="text;html=1;align=center;verticalAlign=middle;resizable=0;points=[];autosize=1;strokeColor=none;fillColor=none;" vertex="1" parent="1">
          <mxGeometry x="490" y="380" width="80" height="30" as="geometry" />
        </mxCell>
        <mxCell id="tl7a3gq7mXf6yhrT7CLf-23" value="" style="endArrow=classic;html=1;rounded=0;exitX=1;exitY=0.5;exitDx=0;exitDy=0;" edge="1" parent="1" source="tl7a3gq7mXf6yhrT7CLf-19">
          <mxGeometry width="50" height="50" relative="1" as="geometry">
            <mxPoint x="390" y="430" as="sourcePoint" />
            <mxPoint x="680" y="480" as="targetPoint" />
          </mxGeometry>
        </mxCell>
        <mxCell id="tl7a3gq7mXf6yhrT7CLf-24" value="Obnova pretplate" style="rounded=1;whiteSpace=wrap;html=1;" vertex="1" parent="1">
          <mxGeometry x="680" y="430" width="120" height="100" as="geometry" />
        </mxCell>
        <mxCell id="tl7a3gq7mXf6yhrT7CLf-25" value="P 2.5" style="rounded=1;whiteSpace=wrap;html=1;fillColor=#1ba1e2;fontColor=#ffffff;strokeColor=#006EAF;" vertex="1" parent="1">
          <mxGeometry x="680" y="430" width="120" height="30" as="geometry" />
        </mxCell>
        <mxCell id="tl7a3gq7mXf6yhrT7CLf-26" value="Zahtjev za obnovu" style="text;html=1;align=center;verticalAlign=middle;resizable=0;points=[];autosize=1;strokeColor=none;fillColor=none;" vertex="1" parent="1">
          <mxGeometry x="550" y="448" width="120" height="30" as="geometry" />
        </mxCell>
        <mxCell id="tl7a3gq7mXf6yhrT7CLf-27" value="" style="endArrow=classic;html=1;rounded=0;exitX=0.5;exitY=0;exitDx=0;exitDy=0;entryX=0.58;entryY=1.01;entryDx=0;entryDy=0;entryPerimeter=0;" edge="1" parent="1" source="tl7a3gq7mXf6yhrT7CLf-25" target="tl7a3gq7mXf6yhrT7CLf-12">
          <mxGeometry width="50" height="50" relative="1" as="geometry">
            <mxPoint x="390" y="330" as="sourcePoint" />
            <mxPoint x="440" y="280" as="targetPoint" />
          </mxGeometry>
        </mxCell>
        <mxCell id="tl7a3gq7mXf6yhrT7CLf-28" value="Dopuštena i &lt;br&gt;uspješna obnova" style="text;html=1;align=center;verticalAlign=middle;resizable=0;points=[];autosize=1;strokeColor=none;fillColor=none;" vertex="1" parent="1">
          <mxGeometry x="740" y="375" width="110" height="40" as="geometry" />
        </mxCell>
        <mxCell id="tl7a3gq7mXf6yhrT7CLf-29" value="" style="rounded=0;whiteSpace=wrap;html=1;" vertex="1" parent="1">
          <mxGeometry x="710" y="140" width="40" height="40" as="geometry" />
        </mxCell>
        <mxCell id="tl7a3gq7mXf6yhrT7CLf-30" value="Produžena &lt;br&gt;pretplata" style="text;html=1;align=center;verticalAlign=middle;resizable=0;points=[];autosize=1;strokeColor=none;fillColor=none;" vertex="1" parent="1">
          <mxGeometry x="730" y="200" width="80" height="40" as="geometry" />
        </mxCell>
      </root>
    </mxGraphModel>
  </diagram>
</mxfile>
